<svg width="25" height="16" viewBox="0 0 25 16" fill="none" xmlns="http://www.w3.org/2000/svg">
<g clip-path="url(#clip0_53_129)">
<path d="M22.1048 0H2.164C1.0627 0 0.169922 0.89543 0.169922 2V14C0.169922 15.1046 1.0627 16 2.164 16H22.1048C23.2061 16 24.0988 15.1046 24.0988 14V2C24.0988 0.89543 23.2061 0 22.1048 0Z" fill="#016FD0"/>
<path fill-rule="evenodd" clip-rule="evenodd" d="M13.8936 13.3939V7.6925L24.011 7.70161V9.27651L22.8416 10.5299L24.011 11.7948V13.4031H22.144L21.1517 12.3049L20.1665 13.4072L13.8936 13.3939Z" fill="#FFFFFE"/>
<path fill-rule="evenodd" clip-rule="evenodd" d="M14.5693 12.7688V8.31995H18.3304V9.34483H15.7871V10.0405H18.2698V11.0483H15.7871V11.7317H18.3304V12.7688H14.5693Z" fill="#016FD0"/>
<path fill-rule="evenodd" clip-rule="evenodd" d="M18.3116 12.7687L20.3928 10.5417L18.3115 8.31995H19.9224L21.1941 9.72998L22.4694 8.31995H24.011V8.35495L21.9742 10.5417L24.011 12.7056V12.7687H22.4539L21.1596 11.3446L19.8787 12.7687H18.3116Z" fill="#016FD0"/>
<path fill-rule="evenodd" clip-rule="evenodd" d="M14.3652 2.63196H16.804L17.6606 4.58281V2.63196H20.6715L21.1907 4.09353L21.7117 2.63196H24.0108V8.33335H11.8604L14.3652 2.63196Z" fill="#FFFFFE"/>
<path fill-rule="evenodd" clip-rule="evenodd" d="M14.8266 3.25134L12.8584 7.69651H14.2083L14.5796 6.80635H16.5916L16.9626 7.69651H18.3461L16.3861 3.25134H14.8266ZM14.9957 5.80878L15.5859 4.39371L16.1757 5.80878H14.9957Z" fill="#016FD0"/>
<path fill-rule="evenodd" clip-rule="evenodd" d="M18.3281 7.69569V3.25061L20.2256 3.25715L21.202 5.98988L22.1847 3.25061H24.0109V7.69569L22.8358 7.70612V4.65278L21.7265 7.69569H20.6539L19.5216 4.64235V7.69569H18.3281Z" fill="#016FD0"/>
</g>
<defs>
<clipPath id="clip0_53_129">
<rect width="23.9289" height="16" fill="white" transform="translate(0.169922)"/>
</clipPath>
</defs>
</svg>
