<svg width="64" height="64" viewBox="0 0 64 64" fill="none" xmlns="http://www.w3.org/2000/svg">
<path d="M40.575 29.795C39.7817 25.9137 36.2467 23 32 23C28.6283 23 25.7 24.845 24.2417 27.545C20.73 27.905 18 30.7738 18 34.25C18 37.9738 21.1383 41 25 41H40.1667C43.3867 41 46 38.48 46 35.375C46 32.405 43.6083 29.9975 40.575 29.795ZM40.1667 38.75H25C22.4217 38.75 20.3333 36.7362 20.3333 34.25C20.3333 31.9438 22.1183 30.02 24.4867 29.7837L25.735 29.66L26.3183 28.5913C27.4267 26.5325 29.5967 25.25 32 25.25C35.0567 25.25 37.6933 27.3425 38.2883 30.2338L38.6383 31.9213L40.4233 32.045C42.2433 32.1575 43.6667 33.6313 43.6667 35.375C43.6667 37.2312 42.0917 38.75 40.1667 38.75ZM27.3333 33.125H30.3083V36.5H33.6917V33.125H36.6667L32 28.625L27.3333 33.125Z" fill="#38712F"/>
<circle cx="32" cy="32" r="31" stroke="#38712F" stroke-width="2"/>
</svg>
