<svg width="64" height="64" viewBox="0 0 64 64" fill="none" xmlns="http://www.w3.org/2000/svg">
<circle cx="32" cy="32" r="31" stroke="#38712F" stroke-width="2"/>
<path d="M23.25 37C23.8551 37 24.4027 36.7572 24.8074 36.3674L27.0275 37.4773C27.0164 37.5678 27 37.6566 27 37.75C27 38.9906 28.0094 40 29.25 40C30.4906 40 31.5 38.9906 31.5 37.75C31.5 37.4037 31.4148 37.0795 31.2744 36.7861L34.2861 33.7744C34.5795 33.9148 34.9037 34 35.25 34C36.4906 34 37.5 32.9906 37.5 31.75C37.5 31.5164 37.4541 31.2955 37.3877 31.0836L40.0045 29.1215C40.3615 29.36 40.7895 29.5 41.25 29.5C42.4906 29.5 43.5 28.4906 43.5 27.25C43.5 26.0094 42.4906 25 41.25 25C40.0094 25 39 26.0094 39 27.25C39 27.4836 39.0459 27.7045 39.1123 27.9164L36.4955 29.8785C36.1385 29.64 35.7105 29.5 35.25 29.5C34.0094 29.5 33 30.5094 33 31.75C33 32.0963 33.0852 32.4205 33.2256 32.7139L30.2139 35.7256C29.9205 35.5852 29.5963 35.5 29.25 35.5C28.6449 35.5 28.0973 35.7428 27.6926 36.1326L25.4725 35.0227C25.4836 34.9322 25.5 34.8434 25.5 34.75C25.5 33.5094 24.4906 32.5 23.25 32.5C22.0094 32.5 21 33.5094 21 34.75C21 35.9906 22.0094 37 23.25 37Z" fill="#38712F"/>
</svg>
