<svg width="64" height="64" viewBox="0 0 64 64" fill="none" xmlns="http://www.w3.org/2000/svg">
<g clip-path="url(#clip0_150_8)">
<path d="M43.05 39.3H42.25V23.45C42.25 23.0355 41.9144 22.7 41.5 22.7H38.5C38.0855 22.7 37.75 23.0355 37.75 23.45V39.3H36.25V27.95C36.25 27.5355 35.9144 27.2 35.5 27.2H32.5C32.0855 27.2 31.75 27.5355 31.75 27.95V39.3H30.25V33.95C30.25 33.5355 29.9144 33.2 29.5 33.2H26.5C26.0855 33.2 25.75 33.5355 25.75 33.95V39.3H24.25V30.95C24.25 30.5355 23.9144 30.2 23.5 30.2H20.5C20.0855 30.2 19.75 30.5355 19.75 30.95V39.3H18.95C18.5355 39.3 18.2 39.6355 18.2 40.05C18.2 40.4644 18.5355 40.8 18.95 40.8H43.05C43.4644 40.8 43.8 40.4644 43.8 40.05C43.8 39.6355 43.4644 39.3 43.05 39.3Z" fill="#38712F"/>
</g>
<circle cx="32" cy="32" r="31" stroke="#38712F" stroke-width="2"/>
<defs>
<clipPath id="clip0_150_8">
<rect width="25.6" height="25.6" fill="white" transform="translate(19.2 19.2)"/>
</clipPath>
</defs>
</svg>
