<svg width="64" height="64" viewBox="0 0 64 64" fill="none" xmlns="http://www.w3.org/2000/svg">
<path d="M25.4545 42.0455L25.4545 23.75C25.4545 20.2341 28.3836 17.3864 32 17.3864C35.6164 17.3864 38.5455 20.2341 38.5455 23.75L38.5455 43.6364C38.5455 45.8318 36.7127 47.6136 34.4545 47.6136C32.1964 47.6136 30.3636 45.8318 30.3636 43.6364L30.3636 26.9318C30.3636 26.0568 31.1 25.3409 32 25.3409C32.9 25.3409 33.6364 26.0568 33.6364 26.9318L33.6364 42.0455L36.0909 42.0455L36.0909 26.9318C36.0909 24.7364 34.2582 22.9545 32 22.9545C29.7418 22.9545 27.9091 24.7364 27.9091 26.9318L27.9091 43.6364C27.9091 47.1523 30.8382 50 34.4545 50C38.0709 50 41 47.1523 41 43.6364L41 23.75C41 18.9136 36.9745 15 32 15C27.0255 15 23 18.9136 23 23.75L23 42.0455L25.4545 42.0455Z" fill="#38712F"/>
<circle cx="32" cy="32" r="31" stroke="#38712F" stroke-width="2"/>
</svg>
