<svg width="25" height="16" viewBox="0 0 25 16" fill="none" xmlns="http://www.w3.org/2000/svg">
<g clip-path="url(#clip0_53_139)">
<path d="M22.0315 15.7499L22.0336 15.7499C22.9859 15.7581 23.7671 14.9773 23.779 14.0042L23.779 2.0063C23.7752 1.53569 23.5885 1.08617 23.2603 0.756802C22.933 0.428269 22.4918 0.246149 22.0315 0.250071L2.09409 0.250062C1.6359 0.246149 1.1947 0.428269 0.86737 0.756802C0.539212 1.08617 0.35246 1.53569 0.348641 2.00426L0.348633 13.9937C0.35246 14.4643 0.539212 14.9138 0.86737 15.2432C1.1947 15.5717 1.6359 15.7538 2.09621 15.7499H22.0315ZM22.0304 16.2499C22.0301 16.2499 22.0297 16.2499 22.0293 16.2499L22.0315 16.2499H22.0304Z" fill="white" stroke="black" stroke-opacity="0.2" stroke-width="0.5"/>
<path d="M12.6748 15.9999H22.0318C22.5571 16.0043 23.0625 15.7993 23.437 15.4299C23.8115 15.0605 24.0243 14.557 24.0287 14.0303V11.6716C20.4953 13.7059 16.6633 15.1668 12.6748 15.9999Z" fill="#F27712"/>
<path d="M23.2034 9.29643H22.3536L21.3964 8.03023H21.3056V9.29643H20.6125V6.15161H21.6357C22.4361 6.15161 22.8981 6.48264 22.8981 7.0785C22.8981 7.56678 22.6093 7.88126 22.0895 7.98057L23.2034 9.29643ZM22.1803 7.10333C22.1803 6.79712 21.9492 6.63988 21.5202 6.63988H21.3056V7.59161H21.5037C21.9492 7.59161 22.1803 7.42609 22.1803 7.10333ZM18.1866 6.15161H20.1504V6.68126H18.8797V7.38471H20.1009V7.92264H18.8797V8.77505H20.1504V9.30471H18.1866V6.15161ZM15.9588 9.37919L14.457 6.14333H15.2161L16.165 8.26195L17.1222 6.14333H17.8648L16.3466 9.37919H15.9753H15.9588ZM9.67949 9.37092C8.62331 9.37092 7.79818 8.65092 7.79818 7.71574C7.79818 6.8054 8.63982 6.06885 9.69599 6.06885C9.99304 6.06885 10.2406 6.12678 10.5459 6.25919V6.98747C10.3147 6.75965 10.0036 6.63187 9.67949 6.63161C9.01938 6.63161 8.51605 7.11161 8.51605 7.71574C8.51605 8.35299 9.01113 8.80816 9.71249 8.80816C10.026 8.80816 10.2653 8.70885 10.5459 8.46057V9.18885C10.2323 9.32126 9.96828 9.37092 9.67949 9.37092ZM7.58364 8.33643C7.58364 8.94885 7.08031 9.37092 6.35419 9.37092C5.82611 9.37092 5.44654 9.18885 5.12474 8.77505L5.57857 8.38609C5.73534 8.66747 5.99938 8.80816 6.32944 8.80816C6.64299 8.80816 6.86578 8.61781 6.86578 8.36954C6.86578 8.22885 6.79977 8.12126 6.65949 8.0385C6.50569 7.96365 6.34553 7.90271 6.18091 7.85643C5.52906 7.64954 5.30627 7.42609 5.30627 6.98747C5.30627 6.47436 5.78485 6.0854 6.41195 6.0854C6.80802 6.0854 7.16282 6.20954 7.45987 6.44126L7.09681 6.85505C6.95292 6.69683 6.74924 6.60671 6.53572 6.60678C6.23867 6.60678 6.02414 6.75574 6.02414 6.95436C6.02414 7.11988 6.14791 7.21092 6.56048 7.35161C7.35261 7.59988 7.58364 7.83161 7.58364 8.34471V8.33643ZM4.17584 6.15161H4.86895V9.30471H4.17584V6.15161ZM1.94797 9.30471H0.924805V6.15161H1.94797C3.07016 6.15161 3.84578 6.79712 3.84578 7.72402C3.84578 8.19574 3.61474 8.64264 3.21043 8.94057C2.86387 9.18885 2.47606 9.30471 1.93972 9.30471H1.94797ZM2.7566 6.93781C2.52557 6.75574 2.26152 6.68954 1.8077 6.68954H1.61792V8.77505H1.8077C2.25327 8.77505 2.53382 8.6923 2.7566 8.52678C2.99589 8.32816 3.13617 8.03023 3.13617 7.72402C3.13617 7.41781 2.99589 7.12816 2.7566 6.93781Z" fill="black"/>
<path d="M12.4764 6.06885C11.5688 6.06885 10.8262 6.79712 10.8262 7.69919C10.8262 8.65919 11.5358 9.37919 12.4764 9.37919C13.4006 9.37919 14.1267 8.65092 14.1267 7.72402C14.1267 6.79712 13.4088 6.06885 12.4764 6.06885Z" fill="#F27712"/>
</g>
<defs>
<clipPath id="clip0_53_139">
<rect width="23.9289" height="16" fill="white" transform="translate(0.0996094)"/>
</clipPath>
</defs>
</svg>
