<svg width="64" height="64" viewBox="0 0 64 64" fill="none" xmlns="http://www.w3.org/2000/svg">
<circle cx="32" cy="32" r="31" stroke="#38712F" stroke-width="2"/>
<path d="M28.5 24C26.92 24 25.597 25.059 25.163 26.5H23C22.448 26.5 22 26.947 22 27.5C22 28.053 22.448 28.5 23 28.5H25.163C25.597 29.941 26.92 31 28.5 31C30.43 31 32 29.43 32 27.5C32 25.57 30.43 24 28.5 24ZM28.5 29C27.673 29 27 28.327 27 27.5C27 26.673 27.673 26 28.5 26C29.327 26 30 26.673 30 27.5C30 28.327 29.327 29 28.5 29ZM34 27.5C34 26.947 34.448 26.5 35 26.5H41C41.552 26.5 42 26.947 42 27.5C42 28.053 41.552 28.5 41 28.5H35C34.448 28.5 34 28.053 34 27.5ZM41 36.5H38.837C38.403 35.059 37.08 34 35.5 34C33.57 34 32 35.57 32 37.5C32 39.43 33.57 41 35.5 41C37.08 41 38.403 39.941 38.837 38.5H41C41.552 38.5 42 38.053 42 37.5C42 36.947 41.552 36.5 41 36.5ZM35.5 39C34.673 39 34 38.327 34 37.5C34 36.673 34.673 36 35.5 36C36.327 36 37 36.673 37 37.5C37 38.327 36.327 39 35.5 39ZM30 37.5C30 38.053 29.552 38.5 29 38.5H23C22.448 38.5 22 38.053 22 37.5C22 36.947 22.448 36.5 23 36.5H29C29.552 36.5 30 36.947 30 37.5Z" fill="#38712F"/>
</svg>
