<svg width="281" height="32" viewBox="0 0 281 32" fill="none" xmlns="http://www.w3.org/2000/svg">
<path d="M45 0H265C273.837 0 281 7.16344 281 16C281 24.8366 273.837 32 265 32H45V0Z" fill="#F2F9EB"/>
<path d="M86.3636 14C86.2386 13.6174 86.0739 13.2746 85.8693 12.9716C85.6686 12.6648 85.428 12.4034 85.1477 12.1875C84.8712 11.9716 84.5568 11.8068 84.2045 11.6932C83.8523 11.5795 83.4659 11.5227 83.0455 11.5227C82.3561 11.5227 81.7292 11.7008 81.1648 12.0568C80.6004 12.4129 80.1515 12.9375 79.8182 13.6307C79.4848 14.3239 79.3182 15.1742 79.3182 16.1818C79.3182 17.1894 79.4867 18.0398 79.8239 18.733C80.161 19.4261 80.6174 19.9508 81.1932 20.3068C81.7689 20.6629 82.4167 20.8409 83.1364 20.8409C83.803 20.8409 84.3902 20.6989 84.8977 20.4148C85.4091 20.1269 85.8068 19.7216 86.0909 19.1989C86.3788 18.6723 86.5227 18.053 86.5227 17.3409L86.9545 17.4318H83.4545V16.1818H87.8864V17.4318C87.8864 18.3902 87.6818 19.2235 87.2727 19.9318C86.8674 20.6402 86.3068 21.1894 85.5909 21.5795C84.8788 21.9659 84.0606 22.1591 83.1364 22.1591C82.1061 22.1591 81.2008 21.9167 80.4205 21.4318C79.6439 20.947 79.0379 20.2576 78.6023 19.3636C78.1705 18.4697 77.9545 17.4091 77.9545 16.1818C77.9545 15.2614 78.0777 14.4337 78.3239 13.6989C78.5739 12.9602 78.9261 12.3314 79.3807 11.8125C79.8352 11.2936 80.3731 10.8958 80.9943 10.6193C81.6155 10.3428 82.2992 10.2045 83.0455 10.2045C83.6591 10.2045 84.2311 10.2973 84.7614 10.483C85.2955 10.6648 85.7708 10.9242 86.1875 11.2614C86.608 11.5947 86.9583 11.9943 87.2386 12.4602C87.5189 12.9223 87.7121 13.4356 87.8182 14H86.3636ZM93.777 22.1818C92.9361 22.1818 92.2107 21.9962 91.6009 21.625C90.9948 21.25 90.527 20.7273 90.1974 20.0568C89.8717 19.3826 89.7088 18.5985 89.7088 17.7045C89.7088 16.8106 89.8717 16.0227 90.1974 15.3409C90.527 14.6553 90.9853 14.1212 91.5724 13.7386C92.1634 13.3523 92.8527 13.1591 93.6406 13.1591C94.0952 13.1591 94.544 13.2348 94.9872 13.3864C95.4304 13.5379 95.8338 13.7841 96.1974 14.125C96.5611 14.4621 96.8509 14.9091 97.0668 15.4659C97.2827 16.0227 97.3906 16.7083 97.3906 17.5227V18.0909H90.6634V16.9318H96.027C96.027 16.4394 95.9285 16 95.7315 15.6136C95.5384 15.2273 95.2618 14.9223 94.902 14.6989C94.5459 14.4754 94.1255 14.3636 93.6406 14.3636C93.1065 14.3636 92.6444 14.4962 92.2543 14.7614C91.8679 15.0227 91.5705 15.3636 91.3622 15.7841C91.1539 16.2045 91.0497 16.6553 91.0497 17.1364V17.9091C91.0497 18.5682 91.1634 19.1269 91.3906 19.5852C91.6217 20.0398 91.9418 20.3864 92.3509 20.625C92.7599 20.8598 93.2353 20.9773 93.777 20.9773C94.1293 20.9773 94.4474 20.928 94.7315 20.8295C95.0194 20.7273 95.2675 20.5758 95.4759 20.375C95.6842 20.1705 95.8452 19.9167 95.9588 19.6136L97.2543 19.9773C97.1179 20.4167 96.8887 20.803 96.5668 21.1364C96.2448 21.4659 95.8471 21.7235 95.3736 21.9091C94.9001 22.0909 94.3679 22.1818 93.777 22.1818ZM103.226 13.2727V14.4091H98.7031V13.2727H103.226ZM100.021 11.1818H101.362V19.5C101.362 19.8788 101.417 20.1629 101.527 20.3523C101.641 20.5379 101.785 20.6629 101.959 20.7273C102.137 20.7879 102.324 20.8182 102.521 20.8182C102.669 20.8182 102.79 20.8106 102.885 20.7955C102.98 20.7765 103.055 20.7614 103.112 20.75L103.385 21.9545C103.294 21.9886 103.167 22.0227 103.004 22.0568C102.841 22.0947 102.635 22.1136 102.385 22.1136C102.006 22.1136 101.635 22.0322 101.271 21.8693C100.911 21.7064 100.612 21.4583 100.374 21.125C100.139 20.7917 100.021 20.3712 100.021 19.8636V11.1818ZM109.288 11.6136V10.3636H118.016V11.6136H114.357V22H112.947V11.6136H109.288ZM122.402 22.1818C121.561 22.1818 120.836 21.9962 120.226 21.625C119.62 21.25 119.152 20.7273 118.822 20.0568C118.497 19.3826 118.334 18.5985 118.334 17.7045C118.334 16.8106 118.497 16.0227 118.822 15.3409C119.152 14.6553 119.61 14.1212 120.197 13.7386C120.788 13.3523 121.478 13.1591 122.266 13.1591C122.72 13.1591 123.169 13.2348 123.612 13.3864C124.055 13.5379 124.459 13.7841 124.822 14.125C125.186 14.4621 125.476 14.9091 125.692 15.4659C125.908 16.0227 126.016 16.7083 126.016 17.5227V18.0909H119.288V16.9318H124.652C124.652 16.4394 124.554 16 124.357 15.6136C124.163 15.2273 123.887 14.9223 123.527 14.6989C123.171 14.4754 122.75 14.3636 122.266 14.3636C121.732 14.3636 121.269 14.4962 120.879 14.7614C120.493 15.0227 120.196 15.3636 119.987 15.7841C119.779 16.2045 119.675 16.6553 119.675 17.1364V17.9091C119.675 18.5682 119.788 19.1269 120.016 19.5852C120.247 20.0398 120.567 20.3864 120.976 20.625C121.385 20.8598 121.86 20.9773 122.402 20.9773C122.754 20.9773 123.072 20.928 123.357 20.8295C123.644 20.7273 123.893 20.5758 124.101 20.375C124.309 20.1705 124.47 19.9167 124.584 19.6136L125.879 19.9773C125.743 20.4167 125.514 20.803 125.192 21.1364C124.87 21.4659 124.472 21.7235 123.999 21.9091C123.525 22.0909 122.993 22.1818 122.402 22.1818ZM128.821 13.2727L130.912 16.8409L133.003 13.2727H134.548L131.73 17.6364L134.548 22H133.003L130.912 18.6136L128.821 22H127.276L130.048 17.6364L127.276 13.2727H128.821ZM140.257 13.2727V14.4091H135.734V13.2727H140.257ZM137.053 11.1818H138.393V19.5C138.393 19.8788 138.448 20.1629 138.558 20.3523C138.672 20.5379 138.816 20.6629 138.99 20.7273C139.168 20.7879 139.356 20.8182 139.553 20.8182C139.7 20.8182 139.821 20.8106 139.916 20.7955C140.011 20.7765 140.087 20.7614 140.143 20.75L140.416 21.9545C140.325 21.9886 140.198 22.0227 140.036 22.0568C139.873 22.0947 139.666 22.1136 139.416 22.1136C139.037 22.1136 138.666 22.0322 138.303 21.8693C137.943 21.7064 137.643 21.4583 137.405 21.125C137.17 20.7917 137.053 20.3712 137.053 19.8636V11.1818ZM147.433 22H145.956L150.229 10.3636H151.683L155.956 22H154.479L151.001 12.2045H150.911L147.433 22ZM147.979 17.4545H153.933V18.7045H147.979V17.4545ZM158.928 10.3636V22H157.587V10.3636H158.928ZM165.043 22.1818C164.202 22.1818 163.476 21.9962 162.866 21.625C162.26 21.25 161.793 20.7273 161.463 20.0568C161.137 19.3826 160.974 18.5985 160.974 17.7045C160.974 16.8106 161.137 16.0227 161.463 15.3409C161.793 14.6553 162.251 14.1212 162.838 13.7386C163.429 13.3523 164.118 13.1591 164.906 13.1591C165.361 13.1591 165.81 13.2348 166.253 13.3864C166.696 13.5379 167.099 13.7841 167.463 14.125C167.827 14.4621 168.116 14.9091 168.332 15.4659C168.548 16.0227 168.656 16.7083 168.656 17.5227V18.0909H161.929V16.9318H167.293C167.293 16.4394 167.194 16 166.997 15.6136C166.804 15.2273 166.527 14.9223 166.168 14.6989C165.812 14.4754 165.391 14.3636 164.906 14.3636C164.372 14.3636 163.91 14.4962 163.52 14.7614C163.134 15.0227 162.836 15.3636 162.628 15.7841C162.42 16.2045 162.315 16.6553 162.315 17.1364V17.9091C162.315 18.5682 162.429 19.1269 162.656 19.5852C162.887 20.0398 163.207 20.3864 163.616 20.625C164.026 20.8598 164.501 20.9773 165.043 20.9773C165.395 20.9773 165.713 20.928 165.997 20.8295C166.285 20.7273 166.533 20.5758 166.741 20.375C166.95 20.1705 167.111 19.9167 167.224 19.6136L168.52 19.9773C168.384 20.4167 168.154 20.803 167.832 21.1364C167.51 21.4659 167.113 21.7235 166.639 21.9091C166.166 22.0909 165.634 22.1818 165.043 22.1818ZM170.696 22V13.2727H171.991V14.5909H172.082C172.241 14.1591 172.529 13.8087 172.946 13.5398C173.363 13.2708 173.832 13.1364 174.355 13.1364C174.454 13.1364 174.577 13.1383 174.724 13.142C174.872 13.1458 174.984 13.1515 175.06 13.1591V14.5227C175.014 14.5114 174.91 14.4943 174.747 14.4716C174.588 14.4451 174.42 14.4318 174.241 14.4318C173.817 14.4318 173.438 14.5208 173.105 14.6989C172.776 14.8731 172.514 15.1155 172.321 15.4261C172.132 15.733 172.037 16.0833 172.037 16.4773V22H170.696ZM180.991 13.2727V14.4091H176.469V13.2727H180.991ZM177.787 11.1818H179.128V19.5C179.128 19.8788 179.183 20.1629 179.293 20.3523C179.406 20.5379 179.55 20.6629 179.724 20.7273C179.902 20.7879 180.09 20.8182 180.287 20.8182C180.435 20.8182 180.556 20.8106 180.651 20.7955C180.745 20.7765 180.821 20.7614 180.878 20.75L181.151 21.9545C181.06 21.9886 180.933 22.0227 180.77 22.0568C180.607 22.0947 180.401 22.1136 180.151 22.1136C179.772 22.1136 179.401 22.0322 179.037 21.8693C178.677 21.7064 178.378 21.4583 178.139 21.125C177.904 20.7917 177.787 20.3712 177.787 19.8636V11.1818ZM189.034 15.2273L187.83 15.5682C187.754 15.3674 187.642 15.1723 187.494 14.983C187.35 14.7898 187.153 14.6307 186.903 14.5057C186.653 14.3807 186.333 14.3182 185.943 14.3182C185.409 14.3182 184.964 14.4413 184.608 14.6875C184.256 14.9299 184.08 15.2386 184.08 15.6136C184.08 15.947 184.201 16.2102 184.443 16.4034C184.686 16.5966 185.064 16.7576 185.58 16.8864L186.875 17.2045C187.655 17.3939 188.237 17.6837 188.619 18.0739C189.002 18.4602 189.193 18.9583 189.193 19.5682C189.193 20.0682 189.049 20.5152 188.761 20.9091C188.477 21.303 188.08 21.6136 187.568 21.8409C187.057 22.0682 186.462 22.1818 185.784 22.1818C184.894 22.1818 184.157 21.9886 183.574 21.6023C182.991 21.2159 182.621 20.6515 182.466 19.9091L183.739 19.5909C183.86 20.0606 184.089 20.4129 184.426 20.6477C184.767 20.8826 185.212 21 185.761 21C186.386 21 186.883 20.8674 187.25 20.6023C187.621 20.3333 187.807 20.0114 187.807 19.6364C187.807 19.3333 187.701 19.0795 187.489 18.875C187.277 18.6667 186.951 18.5114 186.511 18.4091L185.057 18.0682C184.258 17.8788 183.67 17.5852 183.295 17.1875C182.924 16.786 182.739 16.2841 182.739 15.6818C182.739 15.1894 182.877 14.7538 183.153 14.375C183.434 13.9962 183.814 13.6989 184.295 13.483C184.78 13.267 185.33 13.1591 185.943 13.1591C186.807 13.1591 187.485 13.3485 187.977 13.7273C188.473 14.1061 188.826 14.6061 189.034 15.2273ZM205.121 10.3636V22H203.757L197.416 12.8636H197.303V22H195.893V10.3636H197.257L203.621 19.5227H203.734V10.3636H205.121ZM211.304 22.1818C210.516 22.1818 209.825 21.9943 209.23 21.6193C208.639 21.2443 208.177 20.7197 207.844 20.0455C207.514 19.3712 207.349 18.5833 207.349 17.6818C207.349 16.7727 207.514 15.9792 207.844 15.3011C208.177 14.6231 208.639 14.0966 209.23 13.7216C209.825 13.3466 210.516 13.1591 211.304 13.1591C212.092 13.1591 212.781 13.3466 213.372 13.7216C213.967 14.0966 214.429 14.6231 214.759 15.3011C215.092 15.9792 215.259 16.7727 215.259 17.6818C215.259 18.5833 215.092 19.3712 214.759 20.0455C214.429 20.7197 213.967 21.2443 213.372 21.6193C212.781 21.9943 212.092 22.1818 211.304 22.1818ZM211.304 20.9773C211.902 20.9773 212.395 20.8239 212.781 20.517C213.168 20.2102 213.454 19.8068 213.639 19.3068C213.825 18.8068 213.918 18.2652 213.918 17.6818C213.918 17.0985 213.825 16.5549 213.639 16.0511C213.454 15.5473 213.168 15.1402 212.781 14.8295C212.395 14.5189 211.902 14.3636 211.304 14.3636C210.705 14.3636 210.213 14.5189 209.827 14.8295C209.44 15.1402 209.154 15.5473 208.969 16.0511C208.783 16.5549 208.69 17.0985 208.69 17.6818C208.69 18.2652 208.783 18.8068 208.969 19.3068C209.154 19.8068 209.44 20.2102 209.827 20.517C210.213 20.8239 210.705 20.9773 211.304 20.9773ZM218.986 22L216.327 13.2727H217.736L219.622 19.9545H219.713L221.577 13.2727H223.009L224.849 19.9318H224.94L226.827 13.2727H228.236L225.577 22H224.259L222.349 15.2955H222.213L220.304 22H218.986Z" fill="#35414B"/>
<path d="M268.032 13.1279L267.769 13.3899C267.686 13.4724 267.641 13.5821 267.641 13.6994C267.641 13.8166 267.686 13.9264 267.769 14.0089L270.758 16.9982L267.765 19.991C267.683 20.0733 267.637 20.1831 267.637 20.3004C267.637 20.4176 267.683 20.5275 267.765 20.6099L268.027 20.872C268.198 21.0427 268.476 21.0427 268.646 20.872L272.222 17.3088C272.305 17.2264 272.363 17.1167 272.363 16.9985V16.9971C272.363 16.8798 272.305 16.7701 272.222 16.6878L268.656 13.1279C268.574 13.0454 268.461 13.0001 268.343 13C268.226 13 268.115 13.0454 268.032 13.1279Z" fill="#35414B"/>
<rect width="68" height="32" rx="16" fill="#81C43B"/>
<path d="M17.2784 22V10.3636H24.4943V11.875H19.0341V15.4205H23.9773V16.9261H19.0341V22H17.2784ZM26.4077 22V13.2727H28.0497V14.6591H28.1406C28.2997 14.1894 28.58 13.8201 28.9815 13.5511C29.3868 13.2784 29.8452 13.142 30.3565 13.142C30.4626 13.142 30.5876 13.1458 30.7315 13.1534C30.8793 13.161 30.9948 13.1705 31.0781 13.1818V14.8068C31.0099 14.7879 30.8887 14.767 30.7145 14.7443C30.5402 14.7178 30.366 14.7045 30.1918 14.7045C29.7902 14.7045 29.4323 14.7898 29.1179 14.9602C28.8073 15.1269 28.5611 15.3598 28.3793 15.6591C28.1974 15.9545 28.1065 16.2917 28.1065 16.6705V22H26.4077ZM35.9972 22.1761C35.1373 22.1761 34.3968 21.9924 33.7756 21.625C33.1581 21.2538 32.6809 20.733 32.3438 20.0625C32.0104 19.3883 31.8438 18.5985 31.8438 17.6932C31.8438 16.7992 32.0104 16.0114 32.3438 15.3295C32.6809 14.6477 33.1506 14.1155 33.7528 13.733C34.3589 13.3504 35.0672 13.1591 35.8778 13.1591C36.3703 13.1591 36.8475 13.2405 37.3097 13.4034C37.7718 13.5663 38.1866 13.822 38.554 14.1705C38.9214 14.5189 39.2112 14.9716 39.4233 15.5284C39.6354 16.0814 39.7415 16.7538 39.7415 17.5455V18.1477H32.804V16.875H38.0767C38.0767 16.428 37.9858 16.0322 37.804 15.6875C37.6222 15.339 37.3665 15.0644 37.0369 14.8636C36.7112 14.6629 36.3286 14.5625 35.8892 14.5625C35.4119 14.5625 34.9953 14.6799 34.6392 14.9148C34.2869 15.1458 34.0142 15.4489 33.821 15.8239C33.6316 16.1951 33.5369 16.5985 33.5369 17.0341V18.0284C33.5369 18.6117 33.6392 19.108 33.8438 19.517C34.0521 19.9261 34.3419 20.2386 34.7131 20.4545C35.0843 20.6667 35.518 20.7727 36.0142 20.7727C36.3362 20.7727 36.6297 20.7273 36.8949 20.6364C37.16 20.5417 37.3892 20.4015 37.5824 20.2159C37.7756 20.0303 37.9233 19.8011 38.0256 19.5284L39.6335 19.8182C39.5047 20.2917 39.2737 20.7064 38.9403 21.0625C38.6108 21.4148 38.196 21.6894 37.696 21.8864C37.1998 22.0795 36.6335 22.1761 35.9972 22.1761ZM45.3878 22.1761C44.5279 22.1761 43.7874 21.9924 43.1662 21.625C42.5488 21.2538 42.0715 20.733 41.7344 20.0625C41.401 19.3883 41.2344 18.5985 41.2344 17.6932C41.2344 16.7992 41.401 16.0114 41.7344 15.3295C42.0715 14.6477 42.5412 14.1155 43.1435 13.733C43.7495 13.3504 44.4579 13.1591 45.2685 13.1591C45.7609 13.1591 46.2382 13.2405 46.7003 13.4034C47.1624 13.5663 47.5772 13.822 47.9446 14.1705C48.312 14.5189 48.6018 14.9716 48.8139 15.5284C49.026 16.0814 49.1321 16.7538 49.1321 17.5455V18.1477H42.1946V16.875H47.4673C47.4673 16.428 47.3764 16.0322 47.1946 15.6875C47.0128 15.339 46.7571 15.0644 46.4276 14.8636C46.1018 14.6629 45.7192 14.5625 45.2798 14.5625C44.8026 14.5625 44.3859 14.6799 44.0298 14.9148C43.6776 15.1458 43.4048 15.4489 43.2116 15.8239C43.0223 16.1951 42.9276 16.5985 42.9276 17.0341V18.0284C42.9276 18.6117 43.0298 19.108 43.2344 19.517C43.4427 19.9261 43.7325 20.2386 44.1037 20.4545C44.4749 20.6667 44.9086 20.7727 45.4048 20.7727C45.7268 20.7727 46.0204 20.7273 46.2855 20.6364C46.5507 20.5417 46.7798 20.4015 46.973 20.2159C47.1662 20.0303 47.3139 19.8011 47.4162 19.5284L49.0241 19.8182C48.8954 20.2917 48.6643 20.7064 48.331 21.0625C48.0014 21.4148 47.5866 21.6894 47.0866 21.8864C46.5904 22.0795 46.0241 22.1761 45.3878 22.1761Z" fill="white"/>
</svg>
