<svg width="64" height="64" viewBox="0 0 64 64" fill="none" xmlns="http://www.w3.org/2000/svg">
<path d="M35.5 34H34.71L34.43 33.73C35.41 32.59 36 31.11 36 29.5C36 25.91 33.09 23 29.5 23C25.91 23 23 25.91 23 29.5C23 33.09 25.91 36 29.5 36C31.11 36 32.59 35.41 33.73 34.43L34 34.71V35.5L39 40.49L40.49 39L35.5 34ZM29.5 34C27.01 34 25 31.99 25 29.5C25 27.01 27.01 25 29.5 25C31.99 25 34 27.01 34 29.5C34 31.99 31.99 34 29.5 34Z" fill="#38712F"/>
<circle cx="32" cy="32" r="31" stroke="#38712F" stroke-width="2"/>
</svg>
