<svg width="25" height="16" viewBox="0 0 25 16" fill="none" xmlns="http://www.w3.org/2000/svg">
<g clip-path="url(#clip0_53_123)">
<path d="M22.176 0H2.23529C1.13399 0 0.241211 0.89543 0.241211 2V14C0.241211 15.1046 1.13399 16 2.23529 16H22.176C23.2773 16 24.1701 15.1046 24.1701 14V2C24.1701 0.89543 23.2773 0 22.176 0Z" fill="#252525"/>
<path d="M9.21468 13C11.9679 13 14.1999 10.7614 14.1999 8C14.1999 5.23858 11.9679 3 9.21468 3C6.46144 3 4.22949 5.23858 4.22949 8C4.22949 10.7614 6.46144 13 9.21468 13Z" fill="#EB001B"/>
<path d="M15.1971 13C17.9503 13 20.1823 10.7614 20.1823 8C20.1823 5.23858 17.9503 3 15.1971 3C12.4439 3 10.2119 5.23858 10.2119 8C10.2119 10.7614 12.4439 13 15.1971 13Z" fill="#F79E1B"/>
<path fill-rule="evenodd" clip-rule="evenodd" d="M12.206 3.99963C13.4168 4.91184 14.2001 6.36418 14.2001 8C14.2001 9.63582 13.4168 11.0882 12.206 12.0004C10.9951 11.0882 10.2119 9.63582 10.2119 8C10.2119 6.36418 10.9951 4.91184 12.206 3.99963Z" fill="#FF5F00"/>
</g>
<defs>
<clipPath id="clip0_53_123">
<rect width="23.9289" height="16" fill="white" transform="translate(0.241211)"/>
</clipPath>
</defs>
</svg>
