<svg width="71" height="64" viewBox="0 0 71 64" fill="none" xmlns="http://www.w3.org/2000/svg">
<path d="M49.85 40.6H49.05V24.75C49.05 24.3355 48.7145 24 48.3 24H45.3C44.8855 24 44.55 24.3355 44.55 24.75V40.6H43.05V29.25C43.05 28.8355 42.7145 28.5 42.3 28.5H39.3C38.8855 28.5 38.55 28.8355 38.55 29.25V40.6H37.05V35.25C37.05 34.8355 36.7145 34.5 36.3 34.5H33.3C32.8855 34.5 32.55 34.8355 32.55 35.25V40.6H31.05V32.25C31.05 31.8355 30.7145 31.5 30.3 31.5H27.3C26.8855 31.5 26.55 31.8355 26.55 32.25V40.6H25.75C25.3355 40.6 25 40.9355 25 41.35C25 41.7645 25.3355 42.1 25.75 42.1H49.85C50.2645 42.1 50.6 41.7645 50.6 41.35C50.6 40.9355 50.2645 40.6 49.85 40.6Z" fill="#38712F"/>
<circle cx="39" cy="32" r="31" stroke="#38712F" stroke-width="2"/>
</svg>
