<svg width="64" height="64" viewBox="0 0 64 64" fill="none" xmlns="http://www.w3.org/2000/svg">
<circle cx="32" cy="32" r="31" stroke="#38712F" stroke-width="2"/>
<path d="M32 28C29.79 28 28 29.79 28 32C28 34.21 29.79 36 32 36C34.21 36 36 34.21 36 32C36 29.79 34.21 28 32 28ZM40.94 31C40.48 26.83 37.17 23.52 33 23.06V21H31V23.06C26.83 23.52 23.52 26.83 23.06 31H21V33H23.06C23.52 37.17 26.83 40.48 31 40.94V43H33V40.94C37.17 40.48 40.48 37.17 40.94 33H43V31H40.94ZM32 39C28.13 39 25 35.87 25 32C25 28.13 28.13 25 32 25C35.87 25 39 28.13 39 32C39 35.87 35.87 39 32 39Z" fill="#38712F"/>
</svg>
