<svg width="64" height="64" viewBox="0 0 64 64" fill="none" xmlns="http://www.w3.org/2000/svg">
<circle cx="32" cy="32" r="31" stroke="#38712F" stroke-width="2"/>
<path d="M41 25C39.89 24.65 38.67 24.5 37.5 24.5C35.55 24.5 33.45 24.9 32 26C30.55 24.9 28.45 24.5 26.5 24.5C24.55 24.5 22.45 24.9 21 26V40.65C21 40.9 21.25 41.15 21.5 41.15C21.6 41.15 21.65 41.1 21.75 41.1C23.1 40.45 25.05 40 26.5 40C28.45 40 30.55 40.4 32 41.5C33.35 40.65 35.8 40 37.5 40C39.15 40 40.85 40.3 42.25 41.05C42.35 41.1 42.4 41.1 42.5 41.1C42.75 41.1 43 40.85 43 40.6V26C42.4 25.55 41.75 25.25 41 25ZM41 38.5C39.9 38.15 38.7 38 37.5 38C35.8 38 33.35 38.65 32 39.5V28C33.35 27.15 35.8 26.5 37.5 26.5C38.7 26.5 39.9 26.65 41 27V38.5Z" fill="#38712F"/>
</svg>
